<?xml version="1.0" standalone="no"?><!DOCTYPE svg PUBLIC "-//W3C//DTD SVG 1.1//EN" "http://www.w3.org/Graphics/SVG/1.1/DTD/svg11.dtd"><svg t="1517974939401" class="icon" style="" viewBox="0 0 1756 1024" version="1.1" xmlns="http://www.w3.org/2000/svg" p-id="1041" xmlns:xlink="http://www.w3.org/1999/xlink" width="342.96875" height="200"><defs><style type="text/css"></style></defs><path d="M1264.292571 814.699886 1075.262171 625.749943c47.870171-53.904457 76.957257-124.842057 76.957257-202.580114 0-168.629029-136.791771-305.329371-305.532343-305.329371-168.7424 0-305.534171 136.702171-305.534171 305.329371 0 168.630857 136.791771 305.334857 305.534171 305.334857 77.566171 0 148.366629-28.900571 202.245486-76.496457l189.056 188.977371c7.263086 7.2576 19.039086 7.2576 26.300343 0C1271.555657 833.728 1271.555657 821.959314 1264.292571 814.699886zM846.723657 682.049829c-142.665143 0-258.322286-115.735771-258.322286-258.505143 0-142.765714 115.657143-258.503314 258.322286-258.503314 142.666971 0 258.322286 115.7376 258.322286 258.503314C1105.045943 566.314057 989.390629 682.049829 846.723657 682.049829z" p-id="1042"></path></svg>